<svg width="20" height="20" viewBox="0 0 20 20" fill="none" xmlns="http://www.w3.org/2000/svg">
<path d="M20 10C20 15.5228 15.5228 20 10 20C4.47715 20 0 15.5228 0 10C0 4.47715 4.47715 0 10 0C15.5228 0 20 4.47715 20 10Z" fill="#0052B5"/>
<path d="M7.5 5.5V0.315044C7.90721 0.210236 8.32445 0.130432 8.75 0.0773672C9.15949 0.0263042 9.57667 0 10 0C10.4233 0 10.8405 0.0263042 11.25 0.0773672C11.6755 0.130432 12.0928 0.210236 12.5 0.315044V6.875L16.75 2.62174C17.2081 3.0411 17.8764 3.87756 18.25 4.375L15 7.5H19.685C19.7898 7.90721 19.8696 8.32445 19.9226 8.75C19.9737 9.15949 20 9.57667 20 10C20 10.4233 19.9737 10.8405 19.9226 11.25C19.8696 11.6756 19.7898 12.0928 19.685 12.5H14.25L18.0007 16C17.4632 16.7156 16.8319 17.3568 16.125 17.9053L12.5 14.25V19.685C12.0928 19.7898 11.6755 19.8696 11.25 19.9226C10.8405 19.9737 10.4233 20 10 20C9.57667 20 9.15949 19.9737 8.75 19.9226C8.32445 19.8696 7.9072 19.7898 7.5 19.685L7.5 13.25L3.375 17.4908C2.81557 16.9956 2.31202 16.4388 1.875 15.8309L5.5 12.5H0.315044C0.210236 12.0928 0.130433 11.6756 0.0773678 11.25C0.0263044 10.8405 0 10.4233 0 10C0 9.57667 0.0263042 9.15949 0.0773672 8.75C0.130432 8.32445 0.210236 7.90721 0.315044 7.5H5.625L2 3.99902C2.55483 3.26055 3.20952 2.6014 3.94404 2.04161L7.5 5.5Z" fill="white"/>
<path d="M7.5 7.5L2.93623 2.92164C2.69491 3.16247 2.46583 3.41556 2.25 3.6799L6.25 7.5H7.5Z" fill="#D90026"/>
<path d="M12.5 7.5L17.0638 2.92164C17.3051 3.16247 17.5342 3.41556 17.75 3.6799L13.75 7.5H12.5Z" fill="#D90026"/>
<path d="M12.5 12.5858L17.0638 17.1642C17.3051 16.9234 17.5342 16.6703 17.75 16.4059L13.75 12.5858H12.5Z" fill="#D90026"/>
<path d="M7.5 12.5858L2.93623 17.1642C2.69491 16.9234 2.46583 16.6703 2.25 16.4059L6.25 12.5858H7.5Z" fill="#D90026"/>
<path d="M0.0773672 8.75C0.0263042 9.15949 0 9.57667 0 10C0 10.4233 0.0263044 10.8405 0.0773678 11.25H8.75V19.9226C9.15949 19.9737 9.57667 20 10 20C10.4233 20 10.8405 19.9737 11.25 19.9226V11.25H19.9226C19.9737 10.8405 20 10.4233 20 10C20 9.57667 19.9737 9.15949 19.9226 8.75H11.25V0.0773672C10.7607 0.0037666 10.5098 0 10 0C9.57667 0 9.15949 0.0263042 8.75 0.0773672V8.75H0.0773672Z" fill="#D90026"/>
</svg>
