<svg width="20" height="20" viewBox="0 0 20 20" fill="none" xmlns="http://www.w3.org/2000/svg">
<path d="M10 20C4.47715 20 -6.78525e-07 15.5229 -4.37114e-07 10C-1.95703e-07 4.47717 4.47715 1.45803e-05 10 1.48217e-05C15.5228 1.50631e-05 20 4.47717 20 10C20 15.5229 15.5228 20 10 20Z" fill="#0052B5"/>
<path d="M19.3704 6.5C17.9517 2.70333 14.2915 -2.22004e-07 10 -4.09593e-07C5.70847 -5.97181e-07 2.04834 2.70333 0.629608 6.5L19.3704 6.5Z" fill="white"/>
<path d="M0.629609 13.5C2.04834 17.2967 5.70847 20 10 20C14.2915 20 17.9517 17.2967 19.3704 13.5L0.629609 13.5Z" fill="#D90026"/>
</svg>
